<mxfile host="65bd71144e" pages="8">
    <diagram id="xFTzzApd_VlAG6JVN904" name="Index Page">
        <mxGraphModel dx="1506" dy="584" grid="1" gridSize="10" guides="1" tooltips="1" connect="1" arrows="1" fold="1" page="1" pageScale="1" pageWidth="850" pageHeight="1100" math="0" shadow="0">
            <root>
                <mxCell id="0"/>
                <mxCell id="1" parent="0"/>
                <mxCell id="ezS_i2eluIjvUJbCI1Zx-1" value="App Name" style="rounded=1;whiteSpace=wrap;html=1;" parent="1" vertex="1">
                    <mxGeometry x="365" y="50" width="120" height="60" as="geometry"/>
                </mxCell>
                <mxCell id="ezS_i2eluIjvUJbCI1Zx-3" value="Login" style="rounded=1;whiteSpace=wrap;html=1;" parent="1" vertex="1">
                    <mxGeometry x="350" y="170" width="50" height="30" as="geometry"/>
                </mxCell>
                <mxCell id="ezS_i2eluIjvUJbCI1Zx-4" value="Sign Up" style="rounded=1;whiteSpace=wrap;html=1;" parent="1" vertex="1">
                    <mxGeometry x="450" y="170" width="50" height="30" as="geometry"/>
                </mxCell>
            </root>
        </mxGraphModel>
    </diagram>
    <diagram id="BaaJqr_17_VVHBZOjMRC" name="Show Page">
        <mxGraphModel dx="1506" dy="584" grid="1" gridSize="10" guides="1" tooltips="1" connect="1" arrows="1" fold="1" page="1" pageScale="1" pageWidth="850" pageHeight="1100" math="0" shadow="0">
            <root>
                <mxCell id="7u8UnrXO3SnSuVbqprdg-0"/>
                <mxCell id="7u8UnrXO3SnSuVbqprdg-1" parent="7u8UnrXO3SnSuVbqprdg-0"/>
                <mxCell id="7u8UnrXO3SnSuVbqprdg-2" value="Logout" style="rounded=1;whiteSpace=wrap;html=1;" parent="7u8UnrXO3SnSuVbqprdg-1" vertex="1">
                    <mxGeometry x="730" y="20" width="50" height="20" as="geometry"/>
                </mxCell>
                <mxCell id="7u8UnrXO3SnSuVbqprdg-3" value="Monthly Wish Lists" style="rounded=1;whiteSpace=wrap;html=1;" parent="7u8UnrXO3SnSuVbqprdg-1" vertex="1">
                    <mxGeometry x="440" y="120" width="120" height="60" as="geometry"/>
                </mxCell>
                <mxCell id="7u8UnrXO3SnSuVbqprdg-4" value="Monthly Bills" style="rounded=1;whiteSpace=wrap;html=1;" parent="7u8UnrXO3SnSuVbqprdg-1" vertex="1">
                    <mxGeometry x="280" y="120" width="120" height="60" as="geometry"/>
                </mxCell>
            </root>
        </mxGraphModel>
    </diagram>
    <diagram name="Bills Show Page" id="bLy-OPGQLB_afSVxWQdF">
        <mxGraphModel dx="1506" dy="584" grid="1" gridSize="10" guides="1" tooltips="1" connect="1" arrows="1" fold="1" page="1" pageScale="1" pageWidth="850" pageHeight="1100" math="0" shadow="0">
            <root>
                <mxCell id="OPf2z-7WJVCgmj6jdneb-0"/>
                <mxCell id="OPf2z-7WJVCgmj6jdneb-1" parent="OPf2z-7WJVCgmj6jdneb-0"/>
                <mxCell id="OPf2z-7WJVCgmj6jdneb-2" value="Monthly Bills" style="rounded=1;whiteSpace=wrap;html=1;" parent="OPf2z-7WJVCgmj6jdneb-1" vertex="1">
                    <mxGeometry x="365" y="50" width="120" height="60" as="geometry"/>
                </mxCell>
                <mxCell id="OPf2z-7WJVCgmj6jdneb-3" value="June" style="rounded=1;whiteSpace=wrap;html=1;" parent="OPf2z-7WJVCgmj6jdneb-1" vertex="1">
                    <mxGeometry x="280" y="260" width="120" height="60" as="geometry"/>
                </mxCell>
                <mxCell id="OPf2z-7WJVCgmj6jdneb-4" value="July" style="rounded=1;whiteSpace=wrap;html=1;" parent="OPf2z-7WJVCgmj6jdneb-1" vertex="1">
                    <mxGeometry x="470" y="260" width="120" height="60" as="geometry"/>
                </mxCell>
                <mxCell id="OPf2z-7WJVCgmj6jdneb-5" value="November" style="rounded=1;whiteSpace=wrap;html=1;" parent="OPf2z-7WJVCgmj6jdneb-1" vertex="1">
                    <mxGeometry x="470" y="360" width="120" height="60" as="geometry"/>
                </mxCell>
                <mxCell id="OPf2z-7WJVCgmj6jdneb-6" value="October" style="rounded=1;whiteSpace=wrap;html=1;" parent="OPf2z-7WJVCgmj6jdneb-1" vertex="1">
                    <mxGeometry x="280" y="360" width="120" height="60" as="geometry"/>
                </mxCell>
                <mxCell id="OPf2z-7WJVCgmj6jdneb-7" value="September" style="rounded=1;whiteSpace=wrap;html=1;" parent="OPf2z-7WJVCgmj6jdneb-1" vertex="1">
                    <mxGeometry x="90" y="360" width="120" height="60" as="geometry"/>
                </mxCell>
                <mxCell id="OPf2z-7WJVCgmj6jdneb-8" value="May" style="rounded=1;whiteSpace=wrap;html=1;" parent="OPf2z-7WJVCgmj6jdneb-1" vertex="1">
                    <mxGeometry x="90" y="260" width="120" height="60" as="geometry"/>
                </mxCell>
                <mxCell id="OPf2z-7WJVCgmj6jdneb-9" value="December" style="rounded=1;whiteSpace=wrap;html=1;" parent="OPf2z-7WJVCgmj6jdneb-1" vertex="1">
                    <mxGeometry x="650" y="360" width="120" height="60" as="geometry"/>
                </mxCell>
                <mxCell id="OPf2z-7WJVCgmj6jdneb-10" value="August" style="rounded=1;whiteSpace=wrap;html=1;" parent="OPf2z-7WJVCgmj6jdneb-1" vertex="1">
                    <mxGeometry x="650" y="260" width="120" height="60" as="geometry"/>
                </mxCell>
                <mxCell id="OPf2z-7WJVCgmj6jdneb-11" value="April" style="rounded=1;whiteSpace=wrap;html=1;" parent="OPf2z-7WJVCgmj6jdneb-1" vertex="1">
                    <mxGeometry x="650" y="160" width="120" height="60" as="geometry"/>
                </mxCell>
                <mxCell id="OPf2z-7WJVCgmj6jdneb-12" value="March" style="rounded=1;whiteSpace=wrap;html=1;" parent="OPf2z-7WJVCgmj6jdneb-1" vertex="1">
                    <mxGeometry x="470" y="160" width="120" height="60" as="geometry"/>
                </mxCell>
                <mxCell id="OPf2z-7WJVCgmj6jdneb-13" value="February" style="rounded=1;whiteSpace=wrap;html=1;" parent="OPf2z-7WJVCgmj6jdneb-1" vertex="1">
                    <mxGeometry x="280" y="160" width="120" height="60" as="geometry"/>
                </mxCell>
                <mxCell id="OPf2z-7WJVCgmj6jdneb-14" value="January" style="rounded=1;whiteSpace=wrap;html=1;" parent="OPf2z-7WJVCgmj6jdneb-1" vertex="1">
                    <mxGeometry x="90" y="160" width="120" height="60" as="geometry"/>
                </mxCell>
            </root>
        </mxGraphModel>
    </diagram>
    <diagram id="HnLVb46-O4a1NfgkLTy0" name="Bills Month Page">
        <mxGraphModel dx="1506" dy="584" grid="1" gridSize="10" guides="1" tooltips="1" connect="1" arrows="1" fold="1" page="1" pageScale="1" pageWidth="850" pageHeight="1100" math="0" shadow="0">
            <root>
                <mxCell id="qYN35AN9OCQO3QU_tyOt-0"/>
                <mxCell id="qYN35AN9OCQO3QU_tyOt-1" parent="qYN35AN9OCQO3QU_tyOt-0"/>
                <mxCell id="BqAOIw_ptx7I91a27Q2D-0" value="&lt;table border=&quot;1&quot; width=&quot;100%&quot; height=&quot;100%&quot; cellpadding=&quot;4&quot; style=&quot;width:100%;height:100%;border-collapse:collapse;&quot;&gt;&lt;tr style=&quot;background-color:#A7C942;color:#ffffff;border:1px solid #98bf21;&quot;&gt;&lt;th align=&quot;left&quot;&gt;Title 1&lt;/th&gt;&lt;th align=&quot;left&quot;&gt;Title 2&lt;/th&gt;&lt;th align=&quot;left&quot;&gt;Title 3&lt;/th&gt;&lt;/tr&gt;&lt;tr style=&quot;border:1px solid #98bf21;&quot;&gt;&lt;td&gt;Value 1&lt;/td&gt;&lt;td&gt;Value 2&lt;/td&gt;&lt;td&gt;Value 3&lt;/td&gt;&lt;/tr&gt;&lt;tr style=&quot;background-color:#EAF2D3;border:1px solid #98bf21;&quot;&gt;&lt;td&gt;Value 4&lt;/td&gt;&lt;td&gt;Value 5&lt;/td&gt;&lt;td&gt;Value 6&lt;/td&gt;&lt;/tr&gt;&lt;tr style=&quot;border:1px solid #98bf21;&quot;&gt;&lt;td&gt;Value 7&lt;/td&gt;&lt;td&gt;Value 8&lt;/td&gt;&lt;td&gt;Value 9&lt;/td&gt;&lt;/tr&gt;&lt;tr style=&quot;background-color:#EAF2D3;border:1px solid #98bf21;&quot;&gt;&lt;td&gt;Value 10&lt;/td&gt;&lt;td&gt;Value 11&lt;/td&gt;&lt;td&gt;Value 12&lt;/td&gt;&lt;/tr&gt;&lt;/table&gt;" style="text;html=1;strokeColor=#c0c0c0;fillColor=#ffffff;overflow=fill;rounded=0;" parent="qYN35AN9OCQO3QU_tyOt-1" vertex="1">
                    <mxGeometry x="285" y="190" width="280" height="160" as="geometry"/>
                </mxCell>
                <mxCell id="OBvlZHzCTXSDQCDFw2OV-0" value="Month's Bills" style="rounded=1;whiteSpace=wrap;html=1;" parent="qYN35AN9OCQO3QU_tyOt-1" vertex="1">
                    <mxGeometry x="365" y="50" width="120" height="60" as="geometry"/>
                </mxCell>
            </root>
        </mxGraphModel>
    </diagram>
    <diagram id="-z2t7IHrH4u_qBOClzPO" name="Bills Edit Page">
        <mxGraphModel dx="1506" dy="584" grid="1" gridSize="10" guides="1" tooltips="1" connect="1" arrows="1" fold="1" page="1" pageScale="1" pageWidth="850" pageHeight="1100" math="0" shadow="0">
            <root>
                <mxCell id="B-XBgqDHm7TmpC_Lvcyv-0"/>
                <mxCell id="B-XBgqDHm7TmpC_Lvcyv-1" parent="B-XBgqDHm7TmpC_Lvcyv-0"/>
                <mxCell id="B-XBgqDHm7TmpC_Lvcyv-2" value="Edit Bill" style="rounded=1;whiteSpace=wrap;html=1;" parent="B-XBgqDHm7TmpC_Lvcyv-1" vertex="1">
                    <mxGeometry x="365" y="50" width="120" height="60" as="geometry"/>
                </mxCell>
                <mxCell id="0eIcrBo3U0RnjRq1Q-Xa-5" value="List" style="swimlane;fontStyle=0;childLayout=stackLayout;horizontal=1;startSize=30;horizontalStack=0;resizeParent=1;resizeParentMax=0;resizeLast=0;collapsible=1;marginBottom=0;" parent="B-XBgqDHm7TmpC_Lvcyv-1" vertex="1">
                    <mxGeometry x="355" y="180" width="140" height="120" as="geometry"/>
                </mxCell>
                <mxCell id="0eIcrBo3U0RnjRq1Q-Xa-6" value="Item 1" style="text;strokeColor=none;fillColor=none;align=left;verticalAlign=middle;spacingLeft=4;spacingRight=4;overflow=hidden;points=[[0,0.5],[1,0.5]];portConstraint=eastwest;rotatable=0;" parent="0eIcrBo3U0RnjRq1Q-Xa-5" vertex="1">
                    <mxGeometry y="30" width="140" height="30" as="geometry"/>
                </mxCell>
                <mxCell id="0eIcrBo3U0RnjRq1Q-Xa-7" value="Item 2" style="text;strokeColor=none;fillColor=none;align=left;verticalAlign=middle;spacingLeft=4;spacingRight=4;overflow=hidden;points=[[0,0.5],[1,0.5]];portConstraint=eastwest;rotatable=0;" parent="0eIcrBo3U0RnjRq1Q-Xa-5" vertex="1">
                    <mxGeometry y="60" width="140" height="30" as="geometry"/>
                </mxCell>
                <mxCell id="0eIcrBo3U0RnjRq1Q-Xa-8" value="Item 3" style="text;strokeColor=none;fillColor=none;align=left;verticalAlign=middle;spacingLeft=4;spacingRight=4;overflow=hidden;points=[[0,0.5],[1,0.5]];portConstraint=eastwest;rotatable=0;" parent="0eIcrBo3U0RnjRq1Q-Xa-5" vertex="1">
                    <mxGeometry y="90" width="140" height="30" as="geometry"/>
                </mxCell>
            </root>
        </mxGraphModel>
    </diagram>
    <diagram name="Wish Lists Show Page" id="pWV-LueBM_Jl2FFORea-">
        <mxGraphModel dx="1506" dy="584" grid="1" gridSize="10" guides="1" tooltips="1" connect="1" arrows="1" fold="1" page="1" pageScale="1" pageWidth="850" pageHeight="1100" math="0" shadow="0">
            <root>
                <mxCell id="ewisfZIirQ8NX_BDs2tr-0"/>
                <mxCell id="ewisfZIirQ8NX_BDs2tr-1" parent="ewisfZIirQ8NX_BDs2tr-0"/>
                <mxCell id="ewisfZIirQ8NX_BDs2tr-2" value="Monthly Wish Lists" style="rounded=1;whiteSpace=wrap;html=1;" parent="ewisfZIirQ8NX_BDs2tr-1" vertex="1">
                    <mxGeometry x="365" y="50" width="120" height="60" as="geometry"/>
                </mxCell>
                <mxCell id="ewisfZIirQ8NX_BDs2tr-3" value="June" style="rounded=1;whiteSpace=wrap;html=1;" parent="ewisfZIirQ8NX_BDs2tr-1" vertex="1">
                    <mxGeometry x="280" y="260" width="120" height="60" as="geometry"/>
                </mxCell>
                <mxCell id="ewisfZIirQ8NX_BDs2tr-4" value="July" style="rounded=1;whiteSpace=wrap;html=1;" parent="ewisfZIirQ8NX_BDs2tr-1" vertex="1">
                    <mxGeometry x="470" y="260" width="120" height="60" as="geometry"/>
                </mxCell>
                <mxCell id="ewisfZIirQ8NX_BDs2tr-5" value="November" style="rounded=1;whiteSpace=wrap;html=1;" parent="ewisfZIirQ8NX_BDs2tr-1" vertex="1">
                    <mxGeometry x="470" y="360" width="120" height="60" as="geometry"/>
                </mxCell>
                <mxCell id="ewisfZIirQ8NX_BDs2tr-6" value="October" style="rounded=1;whiteSpace=wrap;html=1;" parent="ewisfZIirQ8NX_BDs2tr-1" vertex="1">
                    <mxGeometry x="280" y="360" width="120" height="60" as="geometry"/>
                </mxCell>
                <mxCell id="ewisfZIirQ8NX_BDs2tr-7" value="September" style="rounded=1;whiteSpace=wrap;html=1;" parent="ewisfZIirQ8NX_BDs2tr-1" vertex="1">
                    <mxGeometry x="90" y="360" width="120" height="60" as="geometry"/>
                </mxCell>
                <mxCell id="ewisfZIirQ8NX_BDs2tr-8" value="May" style="rounded=1;whiteSpace=wrap;html=1;" parent="ewisfZIirQ8NX_BDs2tr-1" vertex="1">
                    <mxGeometry x="90" y="260" width="120" height="60" as="geometry"/>
                </mxCell>
                <mxCell id="ewisfZIirQ8NX_BDs2tr-9" value="December" style="rounded=1;whiteSpace=wrap;html=1;" parent="ewisfZIirQ8NX_BDs2tr-1" vertex="1">
                    <mxGeometry x="650" y="360" width="120" height="60" as="geometry"/>
                </mxCell>
                <mxCell id="ewisfZIirQ8NX_BDs2tr-10" value="August" style="rounded=1;whiteSpace=wrap;html=1;" parent="ewisfZIirQ8NX_BDs2tr-1" vertex="1">
                    <mxGeometry x="650" y="260" width="120" height="60" as="geometry"/>
                </mxCell>
                <mxCell id="ewisfZIirQ8NX_BDs2tr-11" value="April" style="rounded=1;whiteSpace=wrap;html=1;" parent="ewisfZIirQ8NX_BDs2tr-1" vertex="1">
                    <mxGeometry x="650" y="160" width="120" height="60" as="geometry"/>
                </mxCell>
                <mxCell id="ewisfZIirQ8NX_BDs2tr-12" value="March" style="rounded=1;whiteSpace=wrap;html=1;" parent="ewisfZIirQ8NX_BDs2tr-1" vertex="1">
                    <mxGeometry x="470" y="160" width="120" height="60" as="geometry"/>
                </mxCell>
                <mxCell id="ewisfZIirQ8NX_BDs2tr-13" value="February" style="rounded=1;whiteSpace=wrap;html=1;" parent="ewisfZIirQ8NX_BDs2tr-1" vertex="1">
                    <mxGeometry x="280" y="160" width="120" height="60" as="geometry"/>
                </mxCell>
                <mxCell id="ewisfZIirQ8NX_BDs2tr-14" value="January" style="rounded=1;whiteSpace=wrap;html=1;" parent="ewisfZIirQ8NX_BDs2tr-1" vertex="1">
                    <mxGeometry x="90" y="160" width="120" height="60" as="geometry"/>
                </mxCell>
            </root>
        </mxGraphModel>
    </diagram>
    <diagram name="Wish Lists Month Page" id="PIAVR7Pc8U6uz9P2pb_R">
        <mxGraphModel dx="1506" dy="584" grid="1" gridSize="10" guides="1" tooltips="1" connect="1" arrows="1" fold="1" page="1" pageScale="1" pageWidth="850" pageHeight="1100" math="0" shadow="0">
            <root>
                <mxCell id="RH_IWAYvYlqDD7GeieRV-0"/>
                <mxCell id="RH_IWAYvYlqDD7GeieRV-1" parent="RH_IWAYvYlqDD7GeieRV-0"/>
                <mxCell id="RH_IWAYvYlqDD7GeieRV-2" value="&lt;table border=&quot;1&quot; width=&quot;100%&quot; height=&quot;100%&quot; cellpadding=&quot;4&quot; style=&quot;width:100%;height:100%;border-collapse:collapse;&quot;&gt;&lt;tr style=&quot;background-color:#A7C942;color:#ffffff;border:1px solid #98bf21;&quot;&gt;&lt;th align=&quot;left&quot;&gt;Title 1&lt;/th&gt;&lt;th align=&quot;left&quot;&gt;Title 2&lt;/th&gt;&lt;th align=&quot;left&quot;&gt;Title 3&lt;/th&gt;&lt;/tr&gt;&lt;tr style=&quot;border:1px solid #98bf21;&quot;&gt;&lt;td&gt;Value 1&lt;/td&gt;&lt;td&gt;Value 2&lt;/td&gt;&lt;td&gt;Value 3&lt;/td&gt;&lt;/tr&gt;&lt;tr style=&quot;background-color:#EAF2D3;border:1px solid #98bf21;&quot;&gt;&lt;td&gt;Value 4&lt;/td&gt;&lt;td&gt;Value 5&lt;/td&gt;&lt;td&gt;Value 6&lt;/td&gt;&lt;/tr&gt;&lt;tr style=&quot;border:1px solid #98bf21;&quot;&gt;&lt;td&gt;Value 7&lt;/td&gt;&lt;td&gt;Value 8&lt;/td&gt;&lt;td&gt;Value 9&lt;/td&gt;&lt;/tr&gt;&lt;tr style=&quot;background-color:#EAF2D3;border:1px solid #98bf21;&quot;&gt;&lt;td&gt;Value 10&lt;/td&gt;&lt;td&gt;Value 11&lt;/td&gt;&lt;td&gt;Value 12&lt;/td&gt;&lt;/tr&gt;&lt;/table&gt;" style="text;html=1;strokeColor=#c0c0c0;fillColor=#ffffff;overflow=fill;rounded=0;" parent="RH_IWAYvYlqDD7GeieRV-1" vertex="1">
                    <mxGeometry x="285" y="190" width="280" height="160" as="geometry"/>
                </mxCell>
                <mxCell id="RH_IWAYvYlqDD7GeieRV-3" value="Month's Wish List Items" style="rounded=1;whiteSpace=wrap;html=1;" parent="RH_IWAYvYlqDD7GeieRV-1" vertex="1">
                    <mxGeometry x="365" y="50" width="120" height="60" as="geometry"/>
                </mxCell>
            </root>
        </mxGraphModel>
    </diagram>
    <diagram name="Wish Lists Edit Page" id="zErVgRAPYdFlvpZANAug">
        <mxGraphModel dx="1506" dy="584" grid="1" gridSize="10" guides="1" tooltips="1" connect="1" arrows="1" fold="1" page="1" pageScale="1" pageWidth="850" pageHeight="1100" math="0" shadow="0">
            <root>
                <mxCell id="j-HyHfOxTc1SG9DoAmYj-0"/>
                <mxCell id="j-HyHfOxTc1SG9DoAmYj-1" parent="j-HyHfOxTc1SG9DoAmYj-0"/>
                <mxCell id="j-HyHfOxTc1SG9DoAmYj-2" value="Edit Bill" style="rounded=1;whiteSpace=wrap;html=1;" parent="j-HyHfOxTc1SG9DoAmYj-1" vertex="1">
                    <mxGeometry x="365" y="50" width="120" height="60" as="geometry"/>
                </mxCell>
                <mxCell id="j-HyHfOxTc1SG9DoAmYj-3" value="List" style="swimlane;fontStyle=0;childLayout=stackLayout;horizontal=1;startSize=30;horizontalStack=0;resizeParent=1;resizeParentMax=0;resizeLast=0;collapsible=1;marginBottom=0;" parent="j-HyHfOxTc1SG9DoAmYj-1" vertex="1">
                    <mxGeometry x="355" y="180" width="140" height="120" as="geometry"/>
                </mxCell>
                <mxCell id="j-HyHfOxTc1SG9DoAmYj-4" value="Item 1" style="text;strokeColor=none;fillColor=none;align=left;verticalAlign=middle;spacingLeft=4;spacingRight=4;overflow=hidden;points=[[0,0.5],[1,0.5]];portConstraint=eastwest;rotatable=0;" parent="j-HyHfOxTc1SG9DoAmYj-3" vertex="1">
                    <mxGeometry y="30" width="140" height="30" as="geometry"/>
                </mxCell>
                <mxCell id="j-HyHfOxTc1SG9DoAmYj-5" value="Item 2" style="text;strokeColor=none;fillColor=none;align=left;verticalAlign=middle;spacingLeft=4;spacingRight=4;overflow=hidden;points=[[0,0.5],[1,0.5]];portConstraint=eastwest;rotatable=0;" parent="j-HyHfOxTc1SG9DoAmYj-3" vertex="1">
                    <mxGeometry y="60" width="140" height="30" as="geometry"/>
                </mxCell>
                <mxCell id="j-HyHfOxTc1SG9DoAmYj-6" value="Item 3" style="text;strokeColor=none;fillColor=none;align=left;verticalAlign=middle;spacingLeft=4;spacingRight=4;overflow=hidden;points=[[0,0.5],[1,0.5]];portConstraint=eastwest;rotatable=0;" parent="j-HyHfOxTc1SG9DoAmYj-3" vertex="1">
                    <mxGeometry y="90" width="140" height="30" as="geometry"/>
                </mxCell>
            </root>
        </mxGraphModel>
    </diagram>
</mxfile>